# xmcd
#
# Track frame offsets: 
#        150
#        18250
#        30600
#        46300
#        66025
#        81037
#        93187
#        112212
#        127062
#        138662
#        156637
#        206375
#        223850
#        244975
#        270962
#
# Disc length: 3774 seconds
#
# Revision: 6
# Processed by: cddbd v1.5.2PL0 Copyright (c) Steve Scherf et al.
# Submitted via: ExactAudioCopyFreeDBPlugin 1.0
#
DISCID=d90ebc0f
DTITLE=Various Artist - Woodstock Generation CD3
DYEAR=1994
DGENRE=Rock
TTITLE0=Santana - Jingo
TTITLE1=Fleetwood Mac - Black magic woman
TTITLE2=Mott the Hoople - All the young dudes
TTITLE3=Mountain - Mississippi queen
TTITLE4=Roger McGuinn - Knockin' on heaven's door
TTITLE5=Spirit - I got a line on you
TTITLE6=Poor Things - Mustang Sally
TTITLE7=Donovan - Jeff Beck Group - Goo Goo Barabajagal
TTITLE8=The Byrds - 5 D (Fifth Dimension)
TTITLE9=Blood, Sweat and Tears - Hi-de-ho
TTITLE10=The Chambers Brothers - Time has come today
TTITLE11=Tim Hardin - Simple song of freedom
TTITLE12=The New Riders of the Purple Sage - I don't need no doctor
TTITLE13=It's a Beautiful Day - A hot summer day
TTITLE14=Laura Nyro - Wedding bell blues
EXTD=
EXTT0=
EXTT1=
EXTT2=
EXTT3=
EXTT4=
EXTT5=
EXTT6=
EXTT7=
EXTT8=
EXTT9=
EXTT10=
EXTT11=
EXTT12=
EXTT13=
EXTT14=
PLAYORDER=
